<?xml version="1.0" standalone="no"?>
<!DOCTYPE svg PUBLIC "-//W3C//DTD SVG 20010904//EN"
 "http://www.w3.org/TR/2001/REC-SVG-20010904/DTD/svg10.dtd">
<svg version="1.0" xmlns="http://www.w3.org/2000/svg"
 width="550.000000pt" height="550.000000pt" viewBox="0 0 550.000000 550.000000"
 preserveAspectRatio="xMidYMid meet">
<metadata>
Created by potrace 1.11, written by Peter Selinger 2001-2013
</metadata>
<g transform="translate(0.000000,550.000000) scale(0.100000,-0.100000)"
fill="#000000" stroke="none">
<path d="M410 3915 l0 -1175 1175 0 1175 0 0 1175 0 1175 -1175 0 -1175 0 0
-1175z"/>
<path d="M3200 4700 l0 -100 1000 0 1000 0 0 100 0 100 -1000 0 -1000 0 0
-100z"/>
<path d="M3200 4000 l0 -100 1000 0 1000 0 0 100 0 100 -1000 0 -1000 0 0
-100z"/>
<path d="M3200 3200 l0 -100 1000 0 1000 0 0 100 0 100 -1000 0 -1000 0 0
-100z"/>
<path d="M2145 2180 c-278 -42 -531 -234 -651 -495 -63 -137 -77 -208 -77
-400 -1 -145 3 -182 21 -250 114 -415 481 -670 921 -642 120 8 206 30 308 77
98 45 170 100 276 208 l78 79 -36 32 -36 32 -82 -77 c-180 -167 -324 -234
-506 -234 -189 0 -331 91 -411 262 -68 149 -90 274 -90 532 0 351 59 565 192
699 124 124 309 141 493 44 110 -58 261 -235 341 -399 26 -53 31 -58 61 -58
l33 0 0 295 0 295 -35 0 c-30 0 -37 -5 -55 -39 -41 -81 -83 -88 -221 -36 -51
20 -126 45 -168 56 -88 23 -265 33 -356 19z"/>
<path d="M3562 2180 c-177 -32 -308 -125 -373 -264 -39 -83 -52 -162 -46 -274
4 -81 9 -102 41 -168 72 -144 182 -229 506 -387 280 -136 329 -186 330 -332 0
-164 -111 -272 -290 -283 -142 -8 -268 43 -361 148 -57 63 -129 202 -161 313
l-22 77 -38 0 -38 0 0 -310 0 -310 40 0 c27 0 40 4 40 14 0 7 9 25 21 40 27
34 57 34 185 -3 200 -58 365 -64 524 -20 347 95 499 436 334 750 -68 128 -112
161 -428 321 -242 122 -289 150 -338 198 -65 64 -84 113 -74 198 16 139 120
222 277 222 201 0 385 -159 468 -403 17 -49 20 -52 54 -55 l37 -3 0 270 0 271
-38 0 c-32 0 -39 -4 -49 -29 -6 -16 -22 -36 -35 -45 -23 -15 -30 -15 -114 10
-49 15 -114 33 -144 40 -71 18 -240 26 -308 14z"/>
</g>
</svg>
